<mxfile host="app.diagrams.net" modified="2023-04-19T19:06:12.127Z" agent="Mozilla/5.0 (Windows NT 10.0; Win64; x64) AppleWebKit/537.36 (KHTML, like Gecko) Chrome/112.0.0.0 Safari/537.36 Edg/112.0.1722.48" etag="jmrxd-6ldO48tXfRJeEM" version="21.1.8" type="github">
  <diagram id="pjwyNhV06kcrNEdlm7uS" name="Página-1">
    <mxGraphModel dx="1050" dy="549" grid="1" gridSize="10" guides="1" tooltips="1" connect="1" arrows="1" fold="1" page="1" pageScale="1" pageWidth="827" pageHeight="1169" math="0" shadow="0">
      <root>
        <mxCell id="0" />
        <mxCell id="1" parent="0" />
        <mxCell id="2fi0mH3SpSUolOAHT32y-15" style="edgeStyle=orthogonalEdgeStyle;rounded=0;orthogonalLoop=1;jettySize=auto;html=1;exitX=0.5;exitY=1;exitDx=0;exitDy=0;entryX=0.663;entryY=0.125;entryDx=0;entryDy=0;entryPerimeter=0;" edge="1" parent="1" source="2fi0mH3SpSUolOAHT32y-1" target="2fi0mH3SpSUolOAHT32y-8">
          <mxGeometry relative="1" as="geometry">
            <mxPoint x="360" y="310" as="targetPoint" />
          </mxGeometry>
        </mxCell>
        <mxCell id="2fi0mH3SpSUolOAHT32y-1" value="Inicio" style="ellipse;whiteSpace=wrap;html=1;" vertex="1" parent="1">
          <mxGeometry x="294" y="230" width="106" height="60" as="geometry" />
        </mxCell>
        <mxCell id="2fi0mH3SpSUolOAHT32y-18" style="edgeStyle=orthogonalEdgeStyle;rounded=0;orthogonalLoop=1;jettySize=auto;html=1;exitX=0.5;exitY=1;exitDx=0;exitDy=0;entryX=0.359;entryY=-0.033;entryDx=0;entryDy=0;entryPerimeter=0;" edge="1" parent="1" source="2fi0mH3SpSUolOAHT32y-6" target="2fi0mH3SpSUolOAHT32y-9">
          <mxGeometry relative="1" as="geometry">
            <mxPoint x="330" y="630" as="targetPoint" />
            <Array as="points">
              <mxPoint x="358" y="625" />
              <mxPoint x="330" y="625" />
              <mxPoint x="330" y="648" />
            </Array>
          </mxGeometry>
        </mxCell>
        <mxCell id="2fi0mH3SpSUolOAHT32y-6" value="nota3(real" style="shape=manualInput;whiteSpace=wrap;html=1;" vertex="1" parent="1">
          <mxGeometry x="318" y="520" width="80" height="80" as="geometry" />
        </mxCell>
        <mxCell id="2fi0mH3SpSUolOAHT32y-17" style="edgeStyle=orthogonalEdgeStyle;rounded=0;orthogonalLoop=1;jettySize=auto;html=1;entryX=0.4;entryY=0.222;entryDx=0;entryDy=0;entryPerimeter=0;" edge="1" parent="1" source="2fi0mH3SpSUolOAHT32y-7" target="2fi0mH3SpSUolOAHT32y-6">
          <mxGeometry relative="1" as="geometry" />
        </mxCell>
        <mxCell id="2fi0mH3SpSUolOAHT32y-7" value="nota2(real)" style="shape=manualInput;whiteSpace=wrap;html=1;" vertex="1" parent="1">
          <mxGeometry x="307" y="420" width="80" height="80" as="geometry" />
        </mxCell>
        <mxCell id="2fi0mH3SpSUolOAHT32y-16" style="edgeStyle=orthogonalEdgeStyle;rounded=0;orthogonalLoop=1;jettySize=auto;html=1;exitX=0.5;exitY=1;exitDx=0;exitDy=0;entryX=0.578;entryY=0.153;entryDx=0;entryDy=0;entryPerimeter=0;" edge="1" parent="1" source="2fi0mH3SpSUolOAHT32y-8" target="2fi0mH3SpSUolOAHT32y-7">
          <mxGeometry relative="1" as="geometry" />
        </mxCell>
        <mxCell id="2fi0mH3SpSUolOAHT32y-8" value="nota1(real)" style="shape=manualInput;whiteSpace=wrap;html=1;" vertex="1" parent="1">
          <mxGeometry x="307" y="320" width="80" height="80" as="geometry" />
        </mxCell>
        <mxCell id="2fi0mH3SpSUolOAHT32y-19" style="edgeStyle=orthogonalEdgeStyle;rounded=0;orthogonalLoop=1;jettySize=auto;html=1;" edge="1" parent="1" source="2fi0mH3SpSUolOAHT32y-9" target="2fi0mH3SpSUolOAHT32y-10">
          <mxGeometry relative="1" as="geometry" />
        </mxCell>
        <mxCell id="2fi0mH3SpSUolOAHT32y-9" value="media = (nota1+nota2+nota3)/3" style="rounded=0;whiteSpace=wrap;html=1;" vertex="1" parent="1">
          <mxGeometry x="250" y="650" width="216" height="60" as="geometry" />
        </mxCell>
        <mxCell id="2fi0mH3SpSUolOAHT32y-20" style="edgeStyle=orthogonalEdgeStyle;rounded=0;orthogonalLoop=1;jettySize=auto;html=1;entryX=0.44;entryY=0.167;entryDx=0;entryDy=0;entryPerimeter=0;" edge="1" parent="1" source="2fi0mH3SpSUolOAHT32y-10" target="2fi0mH3SpSUolOAHT32y-11">
          <mxGeometry relative="1" as="geometry" />
        </mxCell>
        <mxCell id="2fi0mH3SpSUolOAHT32y-10" value="&quot;A média é &quot;, media" style="shape=display;whiteSpace=wrap;html=1;" vertex="1" parent="1">
          <mxGeometry x="268" y="750" width="180" height="60" as="geometry" />
        </mxCell>
        <mxCell id="2fi0mH3SpSUolOAHT32y-11" value="Fim" style="ellipse;whiteSpace=wrap;html=1;" vertex="1" parent="1">
          <mxGeometry x="314" y="860" width="100" height="60" as="geometry" />
        </mxCell>
      </root>
    </mxGraphModel>
  </diagram>
</mxfile>
